<svg width="21" height="20" viewBox="0 0 21 20" fill="none" xmlns="http://www.w3.org/2000/svg">
<path d="M10.5 14.2427C9.91311 14.8296 9.20586 15.123 8.37826 15.123C7.55067 15.123 6.8437 14.8296 6.25737 14.2427C5.67047 13.6558 5.37702 12.9485 5.37702 12.1209C5.37702 11.2933 5.67047 10.5864 6.25737 10L7.53016 8.72723C7.65037 8.60702 7.79193 8.54691 7.95485 8.54691C8.11777 8.54691 8.25905 8.60702 8.37869 8.72723C8.4989 8.84743 8.559 8.989 8.559 9.15192C8.559 9.31483 8.4989 9.45611 8.37869 9.57575L7.1059 10.8485C6.75234 11.2021 6.57557 11.6264 6.57557 12.1213C6.57557 12.6163 6.75234 13.0406 7.1059 13.3941C7.45945 13.7477 7.88371 13.9245 8.37869 13.9245C8.87366 13.9245 9.29793 13.7477 9.65148 13.3941L10.9243 12.1213C11.0445 12.0011 11.186 11.941 11.349 11.941C11.5119 11.941 11.6532 12.0011 11.7728 12.1213C11.893 12.2415 11.9531 12.3831 11.9531 12.546C11.9531 12.7089 11.893 12.8502 11.7728 12.9699L10.5 14.2427ZM9.65148 11.6971C9.53127 11.8173 9.38971 11.8774 9.22679 11.8774C9.06388 11.8774 8.9226 11.8173 8.80295 11.6971C8.68275 11.5769 8.62264 11.4353 8.62264 11.2724C8.62264 11.1095 8.68275 10.9682 8.80295 10.8485L11.3485 8.30296C11.4687 8.18275 11.6103 8.12265 11.7732 8.12265C11.9361 8.12265 12.0774 8.18275 12.1971 8.30296C12.3173 8.42317 12.3774 8.56473 12.3774 8.72765C12.3774 8.89057 12.3173 9.03185 12.1971 9.15149L9.65148 11.6971ZM13.4699 11.2728C13.3496 11.393 13.2081 11.4531 13.0452 11.4531C12.8823 11.4531 12.741 11.393 12.6213 11.2728C12.5011 11.1526 12.441 11.011 12.441 10.8481C12.441 10.6852 12.5011 10.5439 12.6213 10.4243L13.8941 9.15149C14.2477 8.79794 14.4245 8.37367 14.4245 7.8787C14.4245 7.38372 14.2477 6.95946 13.8941 6.60591C13.5406 6.25235 13.1163 6.07558 12.6213 6.07558C12.1264 6.07558 11.7021 6.25235 11.3485 6.60591L10.0757 7.8787C9.95554 7.99891 9.81397 8.05901 9.65106 8.05901C9.48814 8.05901 9.34686 7.99891 9.22722 7.8787C9.10701 7.75849 9.04691 7.61693 9.04691 7.45401C9.04691 7.29109 9.10701 7.14981 9.22722 7.03017L10.5 5.75738C11.0869 5.17048 11.7942 4.87703 12.6218 4.87703C13.4494 4.87703 14.1563 5.17048 14.7426 5.75738C15.3295 6.34428 15.623 7.05153 15.623 7.87912C15.623 8.70672 15.3295 9.41369 14.7426 10L13.4699 11.2728Z" fill="#2F2F2F"/>
<rect x="0.75" y="0.25" width="19.5" height="19.5" rx="9.75" stroke="#2F2F2F" stroke-width="0.5"/>
</svg>
