<svg width="24" height="24" viewBox="0 0 24 24" fill="none" xmlns="http://www.w3.org/2000/svg">
<g clip-path="url(#clip0_1_481)">
<path d="M23.8425 6.97453C23.8425 4.86516 22.2909 3.16828 20.3737 3.16828C17.7769 3.04687 15.1284 3 12.4219 3H11.5781C8.87811 3 6.22498 3.04687 3.62811 3.16875C1.71561 3.16875 0.164042 4.875 0.164042 6.98438C0.0468549 8.65266 -0.00283263 10.3214 -2.01251e-05 11.9902C-0.00470763 13.6589 0.0484174 15.3292 0.159355 17.0011C0.159355 19.1105 1.71092 20.8214 3.62342 20.8214C6.35154 20.948 9.14998 21.0042 11.9953 20.9995C14.8453 21.0089 17.6359 20.9495 20.3672 20.8214C22.2844 20.8214 23.8359 19.1105 23.8359 17.0011C23.9484 15.3277 24 13.6589 23.9953 11.9855C24.0059 10.3167 23.955 8.64641 23.8425 6.97453ZM9.70311 16.5886V7.37766L16.5 11.9808L9.70311 16.5886Z" fill="#212121"/>
</g>
<defs>
<clipPath id="clip0_1_481">
<rect width="24" height="24" fill="white"/>
</clipPath>
</defs>
</svg>
