<svg width="21" height="20" viewBox="0 0 21 20" fill="none" xmlns="http://www.w3.org/2000/svg">
<path d="M13.5 12.5008H7.5V13H13.5V12.5008ZM7.00078 4.49922H11.5008V7H14.0016V8.00078H14.5008V6.50078L12 4H6.49922V8.00078H6.99844V4.49922H7.00078ZM15 8.5H6C4.99922 8.5 4.5 8.99922 4.5 10V13H6.49922V16H14.4984V13H16.5V10C16.5 8.99922 16.0008 8.5 15 8.5ZM6.49922 10.4992H5.50078V9.49844H6.50156V10.4992H6.49922ZM13.9992 15.5008H7.00078V11.9992H14.0016V15.5008H13.9992ZM13.5 13.4992H7.5V13.9984H13.5V13.4992ZM13.5 14.5H7.5V14.9992H13.5V14.5Z" fill="#2F2F2F"/>
<rect x="0.75" y="0.25" width="19.5" height="19.5" rx="9.75" stroke="#2F2F2F" stroke-width="0.5"/>
</svg>
