<svg width="15" height="13" viewBox="0 0 15 13" fill="none" xmlns="http://www.w3.org/2000/svg">
<path d="M10.496 0.793335C9.20616 0.793335 8.10401 1.71272 7.49847 2.34657C6.89293 1.71272 5.79324 0.793335 4.50401 0.793335C2.28185 0.793335 0.730469 2.34226 0.730469 4.55949C0.730469 7.00257 2.65724 8.58164 4.52124 10.109C5.40124 10.8309 6.31201 11.5767 7.01047 12.4038C7.12801 12.5423 7.30032 12.6223 7.48124 12.6223H7.51693C7.69847 12.6223 7.87016 12.5416 7.98708 12.4038C8.68678 11.5767 9.59693 10.8303 10.4775 10.109C12.3409 8.58226 14.2689 7.00318 14.2689 4.55949C14.2689 2.34226 12.7175 0.793335 10.496 0.793335Z" fill="#212121"/>
</svg>
