<svg width="21" height="20" viewBox="0 0 21 20" fill="none" xmlns="http://www.w3.org/2000/svg">
<g clip-path="url(#clip0_7_1336)">
<path d="M10.5 0C4.98 0 0.5 4.48 0.5 10C0.5 15.53 4.98 20 10.5 20C16.02 20 20.5 15.53 20.5 10C20.5 4.48 16.02 0 10.5 0ZM10.5 14.85C9.72 14.85 8.97 14.73 8.27 14.53C6.42 15.73 4.97 15.44 4.97 15.44C6.52 13.79 6.1 13.78 6.13 13.4C4.77 12.43 4.19 11.11 4.19 9.76C4.19 6.94 7.03 4.66 10.5 4.66C13.97 4.66 16.81 6.94 16.81 9.76C16.81 12.57 13.97 14.85 10.5 14.85Z" fill="#2F2F2F"/>
<path d="M8.79002 8.55009C8.83002 8.49009 8.86002 8.43009 8.88002 8.36009C8.90002 8.27009 8.90002 8.18009 8.90002 8.09009H6.53002V8.60009H8.17002C7.64002 9.27009 7.11002 9.94009 6.57002 10.6001C6.53002 10.6601 6.49002 10.7301 6.47002 10.8001C6.45002 10.8901 6.46002 10.9801 6.46002 11.0701H8.70002C8.80002 11.0701 8.89002 10.9801 8.90002 10.8801V10.5901H7.17002C7.65002 9.99009 8.12002 9.39009 8.59002 8.79009C8.66002 8.71009 8.72002 8.63009 8.79002 8.55009Z" fill="#2F2F2F"/>
<path d="M14.51 9.01007C14.29 8.82007 14 8.72007 13.71 8.74007C13.54 8.74007 13.38 8.79007 13.23 8.86007C13 8.98007 12.81 9.18007 12.7 9.42007C12.57 9.71007 12.56 10.0501 12.68 10.3501C12.78 10.6201 12.99 10.8501 13.25 10.9701C13.53 11.1101 13.85 11.1301 14.14 11.0301C14.4 10.9401 14.63 10.7501 14.77 10.5001C14.91 10.2601 14.96 9.97007 14.91 9.70007C14.86 9.43007 14.72 9.18007 14.51 9.01007ZM14.42 10.1001C14.38 10.2501 14.29 10.3801 14.17 10.4701C14.07 10.5401 13.95 10.5901 13.83 10.6001C13.68 10.6201 13.52 10.5801 13.4 10.5001C13.28 10.4201 13.18 10.3101 13.12 10.1701C13.06 10.0101 13.06 9.82007 13.12 9.66007C13.21 9.43007 13.43 9.26007 13.67 9.23007C13.8 9.21007 13.94 9.23007 14.06 9.29007C14.2 9.36007 14.32 9.48007 14.39 9.62007C14.45 9.77007 14.47 9.95007 14.42 10.1001Z" fill="#2F2F2F"/>
<path d="M11.75 10.8901C11.75 10.9801 11.82 11.0701 11.91 11.0701H12.26V8.09009H11.75V10.8901Z" fill="#2F2F2F"/>
<path d="M10.87 8.97003C10.72 8.86003 10.54 8.79003 10.36 8.76003C10.14 8.73003 9.91003 8.76003 9.71003 8.85003C9.47003 8.96003 9.27003 9.15003 9.15003 9.39003C9.04003 9.60003 9.00003 9.84003 9.03003 10.07C9.06003 10.32 9.18003 10.55 9.35003 10.73C9.52003 10.91 9.76003 11.04 10.01 11.08C10.31 11.12 10.62 11.04 10.87 10.86C10.87 10.97 10.95 11.06 11.05 11.07H11.34V8.81003H10.87V8.97003ZM10.84 10.11C10.8 10.26 10.71 10.39 10.58 10.48C10.47 10.56 10.32 10.61 10.17 10.61C10.03 10.61 9.88003 10.56 9.77003 10.47C9.66003 10.38 9.57003 10.26 9.53003 10.13C9.48003 9.96003 9.49003 9.77003 9.57003 9.62003C9.67003 9.40003 9.90003 9.24003 10.14 9.23003C10.3 9.22003 10.45 9.27003 10.58 9.36003C10.69 9.43003 10.77 9.55003 10.82 9.67003C10.87 9.81003 10.88 9.97003 10.84 10.11Z" fill="#2F2F2F"/>
</g>
<defs>
<clipPath id="clip0_7_1336">
<rect width="20" height="20" fill="white" transform="translate(0.5)"/>
</clipPath>
</defs>
</svg>
